<svg xmlns="http://www.w3.org/2000/svg" viewBox="0 0 256 256" width="256" height="256" role="img">
  <title>SecRelay 图标 · 仿 SecRandom 语汇（强调色：琥珀）</title>
  <defs>
    <filter id="j2-shadow" x="-30%" y="-30%" width="160%" height="160%">
      <feDropShadow dx="0" dy="5" stdDeviation="6" flood-color="#8A5410" flood-opacity="0.20"/>
    </filter>
    <filter id="j2-arrow-sh" x="-50%" y="-50%" width="200%" height="200%">
      <feDropShadow dx="0" dy="4" stdDeviation="5" flood-color="#8A5410" flood-opacity="0.26"/>
    </filter>
    <filter id="j2-halo" x="-40%" y="-40%" width="180%" height="180%">
      <feGaussianBlur stdDeviation="7"/>
    </filter>
    <radialGradient id="j2-glow">
      <stop offset="0" stop-color="#F2A33C" stop-opacity="0.20"/>
      <stop offset="1" stop-color="#F2A33C" stop-opacity="0"/>
    </radialGradient>
  </defs>

  <rect width="256" height="256" fill="#FFFFFF"/>
  <ellipse cx="172" cy="176" rx="86" ry="74" fill="url(#j2-glow)"/>

  <g filter="url(#j2-shadow)">
    <rect x="118" y="56" width="70" height="72" rx="24" fill="#127AD2"/>
    <rect x="66" y="52" width="70" height="70" rx="23" fill="#78BAE6"/>
    <rect x="34" y="134" width="192" height="64" rx="32" fill="#127AD2"/>
  </g>

  <path d="M216,144 L206.2,174.7 L200.3,166.6 L154.3,200 L160.2,208.1 L128,208 L137.8,177.3 L143.7,185.4 L189.7,152 L183.8,143.9 Z"
        fill="#FFFFFF" filter="url(#j2-halo)"/>
  <path d="M216,144 L206.2,174.7 L200.3,166.6 L154.3,200 L160.2,208.1 L128,208 L137.8,177.3 L143.7,185.4 L189.7,152 L183.8,143.9 Z"
        fill="#F2A33C" filter="url(#j2-arrow-sh)"/>
</svg>
